<?xml version="1.0"?>
<svg xmlns="http://www.w3.org/2000/svg" height="512px" version="1.1" viewBox="-38 0 512 512.00154" width="512px"><g><g id="surface1">
<path d="M 435.488281 138.917969 L 435.472656 138.519531 C 435.25 133.601562 435.101562 128.398438 435.011719 122.609375 C 434.59375 94.378906 412.152344 71.027344 383.917969 69.449219 C 325.050781 66.160156 279.511719 46.96875 240.601562 9.042969 L 240.269531 8.726562 C 227.578125 -2.910156 208.433594 -2.910156 195.738281 8.726562 L 195.40625 9.042969 C 156.496094 46.96875 110.957031 66.164062 52.089844 69.449219 C 23.859375 71.027344 1.414062 94.378906 0.996094 122.613281 C 0.910156 128.363281 0.761719 133.566406 0.535156 138.519531 L 0.511719 139.445312 C -0.632812 199.472656 -2.054688 274.175781 22.9375 341.988281 C 36.679688 379.277344 57.492188 411.691406 84.792969 438.335938 C 115.886719 468.679688 156.613281 492.769531 205.847656 509.9375 C 207.445312 510.492188 209.109375 510.945312 210.785156 511.28125 L 211.203125 511.363281 C 213.460938 511.789062 215.734375 512 218.007812 512 C 220.414062 512 222.824219 511.761719 225.210938 511.285156 C 226.898438 510.945312 228.570312 510.492188 230.191406 509.925781 C 279.359375 492.730469 320.039062 468.628906 351.105469 438.289062 C 378.398438 411.636719 399.210938 379.214844 412.964844 341.921875 C 438.046875 273.902344 436.628906 199.058594 435.488281 138.917969 Z M 384.773438 331.523438 C 358.417969 402.992188 304.605469 452.070312 220.277344 481.5625 C 219.976562 481.667969 219.652344 481.753906 219.320312 481.820312 C 218.449219 481.996094 217.5625 481.996094 216.691406 481.820312 L 216.613281 481.804688 C 216.304688 481.742188 216.007812 481.660156 215.734375 481.5625 C 131.3125 452.125 77.46875 403.070312 51.128906 331.597656 C 28.09375 269.09375 29.398438 200.519531 30.550781 140.015625 L 30.558594 139.683594 C 30.792969 134.480469 30.949219 129.039062 31.035156 123.054688 C 31.222656 110.519531 41.207031 100.148438 53.765625 99.449219 C 87.078125 97.585938 116.34375 91.148438 143.234375 79.769531 C 170.089844 68.402344 193.941406 52.375 216.144531 30.785156 C 217.273438 29.828125 218.738281 29.828125 219.863281 30.785156 C 242.070312 52.375 265.921875 68.402344 292.773438 79.769531 C 319.664062 91.152344 348.929688 97.589844 382.246094 99.449219 C 394.804688 100.152344 404.789062 110.519531 404.972656 123.058594 C 405.0625 129.074219 405.21875 134.515625 405.453125 139.683594 C 406.601562 200.253906 407.875 268.886719 384.773438 331.523438 Z M 384.773438 331.523438 " data-original="#000000" class="active-path" data-old_color="#000000" fill="#E53935"/>
<path d="M 217.996094 128.410156 C 147.640625 128.410156 90.398438 185.648438 90.398438 256.007812 C 90.398438 326.363281 147.640625 383.605469 217.996094 383.605469 C 288.355469 383.605469 345.59375 326.367188 345.59375 256.007812 C 345.59375 185.652344 288.351562 128.410156 217.996094 128.410156 Z M 217.996094 353.5625 C 164.207031 353.5625 120.445312 309.800781 120.445312 256.007812 C 120.445312 202.214844 164.207031 158.453125 217.996094 158.453125 C 271.785156 158.453125 315.550781 202.214844 315.550781 256.007812 C 315.550781 309.800781 271.785156 353.5625 217.996094 353.5625 Z M 217.996094 353.5625 " data-original="#000000" class="active-path" data-old_color="#000000" fill="#E53935"/>
<path d="M 263.5625 211.945312 C 257.695312 206.078125 248.183594 206.078125 242.316406 211.945312 L 217.996094 236.265625 L 193.675781 211.945312 C 187.808594 206.078125 178.296875 206.078125 172.429688 211.945312 C 166.5625 217.8125 166.5625 227.320312 172.429688 233.1875 L 196.75 257.511719 L 172.429688 281.832031 C 166.5625 287.699219 166.5625 297.210938 172.429688 303.078125 C 175.363281 306.011719 179.207031 307.476562 183.050781 307.476562 C 186.894531 307.476562 190.742188 306.011719 193.671875 303.078125 L 217.996094 278.753906 L 242.316406 303.078125 C 245.25 306.011719 249.09375 307.476562 252.9375 307.476562 C 256.78125 307.476562 260.628906 306.011719 263.5625 303.078125 C 269.425781 297.210938 269.425781 287.699219 263.5625 281.832031 L 239.238281 257.511719 L 263.5625 233.1875 C 269.429688 227.320312 269.429688 217.8125 263.5625 211.945312 Z M 263.5625 211.945312 " data-original="#000000" class="active-path" data-old_color="#000000" fill="#E53935"/>
</g></g> </svg>
