<?xml version="1.0"?>
<svg xmlns="http://www.w3.org/2000/svg" height="512px" version="1.1" viewBox="-38 1 511 511.99979" width="512px" class=""><g><g id="surface1">
<path d="M 435.984375 138.914062 L 435.972656 138.519531 C 435.75 133.59375 435.597656 128.390625 435.511719 122.609375 C 435.09375 94.375 412.648438 71.027344 384.417969 69.449219 C 325.550781 66.160156 280.011719 46.964844 241.101562 9.042969 L 240.769531 8.726562 C 228.074219 -2.910156 208.933594 -2.910156 196.242188 8.726562 L 195.90625 9.042969 C 156.996094 46.964844 111.457031 66.160156 52.585938 69.449219 C 24.355469 71.027344 1.914062 94.375 1.492188 122.609375 C 1.410156 128.390625 1.257812 133.59375 1.035156 138.519531 L 1.011719 139.441406 C -0.132812 199.46875 -1.554688 274.175781 23.433594 341.988281 C 37.179688 379.273438 57.988281 411.691406 85.289062 438.332031 C 116.382812 468.675781 157.109375 492.765625 206.34375 509.933594 C 207.921875 510.484375 209.554688 510.929688 211.207031 511.261719 L 211.296875 511.28125 C 213.6875 511.761719 216.09375 512 218.503906 512 C 220.910156 512 223.316406 511.761719 225.707031 511.28125 C 227.398438 510.945312 229.070312 510.488281 230.6875 509.925781 C 279.855469 492.730469 320.535156 468.628906 351.605469 438.289062 C 378.894531 411.636719 399.707031 379.210938 413.460938 341.917969 C 438.546875 273.902344 437.125 199.054688 435.984375 138.914062 Z M 385.273438 331.519531 C 358.914062 402.992188 305.105469 452.070312 220.773438 481.5625 C 220.472656 481.667969 220.152344 481.753906 219.820312 481.820312 C 218.960938 481.992188 218.085938 481.996094 217.226562 481.828125 L 217.179688 481.820312 C 216.847656 481.753906 216.527344 481.667969 216.230469 481.5625 C 131.8125 452.125 77.96875 403.070312 51.628906 331.597656 C 28.59375 269.09375 29.898438 200.515625 31.050781 140.011719 L 31.058594 139.679688 C 31.289062 134.507812 31.445312 129.066406 31.535156 123.050781 C 31.722656 110.515625 41.707031 100.148438 54.261719 99.445312 C 87.578125 97.585938 116.84375 91.148438 143.734375 79.765625 C 170.585938 68.398438 194.4375 52.375 216.644531 30.78125 C 217.769531 29.828125 219.234375 29.828125 220.363281 30.78125 C 242.566406 52.375 266.417969 68.398438 293.273438 79.765625 C 320.160156 91.148438 349.429688 97.585938 382.742188 99.445312 C 395.300781 100.148438 405.285156 110.515625 405.46875 123.050781 C 405.558594 129.066406 405.714844 134.507812 405.949219 139.679688 C 407.097656 200.253906 408.371094 268.882812 385.273438 331.519531 Z M 385.273438 331.519531 " data-original="#000000" class="active-path" data-old_color="#000000" fill="#FB8C00"/>
<path d="M 218.496094 128.410156 C 148.136719 128.410156 90.898438 185.648438 90.898438 256.007812 C 90.898438 326.363281 148.136719 383.605469 218.496094 383.605469 C 288.851562 383.605469 346.09375 326.363281 346.09375 256.007812 C 346.09375 185.648438 288.851562 128.410156 218.496094 128.410156 Z M 218.496094 353.558594 C 164.703125 353.558594 120.941406 309.796875 120.941406 256.007812 C 120.941406 202.214844 164.703125 158.453125 218.496094 158.453125 C 272.285156 158.453125 316.046875 202.214844 316.046875 256.007812 C 316.046875 309.796875 272.285156 353.558594 218.496094 353.558594 Z M 218.496094 353.558594 " data-original="#000000" class="active-path" data-old_color="#000000" fill="#FB8C00"/>
<path d="M 218.496094 189.628906 C 210.199219 189.628906 203.472656 196.355469 203.472656 204.652344 L 203.472656 263.640625 C 203.472656 271.9375 210.199219 278.664062 218.496094 278.664062 C 226.792969 278.664062 233.515625 271.9375 233.515625 263.640625 L 233.515625 204.652344 C 233.515625 196.355469 226.792969 189.628906 218.496094 189.628906 Z M 218.496094 189.628906 " data-original="#000000" class="active-path" data-old_color="#000000" fill="#FB8C00"/>
<path d="M 233.226562 306.519531 C 233.125 306.042969 233.007812 305.558594 232.867188 305.097656 C 232.726562 304.628906 232.554688 304.167969 232.367188 303.714844 C 232.175781 303.265625 231.964844 302.816406 231.734375 302.382812 C 231.503906 301.953125 231.253906 301.523438 230.984375 301.121094 C 230.714844 300.710938 230.421875 300.3125 230.113281 299.929688 C 229.800781 299.550781 229.460938 299.179688 229.121094 298.839844 C 228.769531 298.488281 228.398438 298.160156 228.019531 297.847656 C 227.636719 297.539062 227.238281 297.238281 226.835938 296.964844 C 226.425781 296.695312 226.007812 296.445312 225.566406 296.214844 C 225.136719 295.984375 224.695312 295.777344 224.242188 295.585938 C 223.792969 295.402344 223.320312 295.234375 222.863281 295.09375 C 222.390625 294.953125 221.910156 294.824219 221.429688 294.734375 C 220.949219 294.632812 220.457031 294.5625 219.976562 294.515625 C 218.996094 294.414062 217.996094 294.414062 217.011719 294.515625 C 216.53125 294.5625 216.042969 294.632812 215.5625 294.734375 C 215.078125 294.824219 214.597656 294.953125 214.128906 295.09375 C 213.667969 295.234375 213.195312 295.40625 212.746094 295.585938 C 212.296875 295.773438 211.855469 295.984375 211.425781 296.214844 C 210.984375 296.445312 210.5625 296.695312 210.152344 296.964844 C 209.753906 297.238281 209.351562 297.539062 208.972656 297.847656 C 208.589844 298.160156 208.21875 298.488281 207.871094 298.839844 C 207.527344 299.179688 207.1875 299.550781 206.878906 299.929688 C 206.566406 300.3125 206.277344 300.710938 206.007812 301.121094 C 205.734375 301.523438 205.484375 301.953125 205.253906 302.382812 C 205.023438 302.816406 204.816406 303.265625 204.625 303.714844 C 204.433594 304.167969 204.273438 304.628906 204.125 305.097656 C 203.984375 305.558594 203.863281 306.039062 203.761719 306.519531 C 203.671875 307 203.59375 307.492188 203.554688 307.984375 C 203.503906 308.472656 203.472656 308.964844 203.472656 309.457031 C 203.472656 309.945312 203.503906 310.445312 203.554688 310.9375 C 203.59375 311.417969 203.671875 311.910156 203.761719 312.390625 C 203.863281 312.871094 203.984375 313.351562 204.125 313.820312 C 204.273438 314.28125 204.433594 314.753906 204.625 315.203125 C 204.816406 315.65625 205.023438 316.105469 205.253906 316.535156 C 205.484375 316.96875 205.734375 317.386719 206.007812 317.796875 C 206.277344 318.207031 206.566406 318.609375 206.878906 318.980469 C 207.1875 319.371094 207.527344 319.730469 207.871094 320.082031 C 208.21875 320.433594 208.589844 320.765625 208.972656 321.074219 C 209.351562 321.386719 209.753906 321.675781 210.152344 321.953125 C 210.5625 322.214844 210.984375 322.476562 211.425781 322.707031 C 211.855469 322.9375 212.296875 323.144531 212.746094 323.335938 C 213.195312 323.519531 213.667969 323.6875 214.128906 323.828125 C 214.597656 323.96875 215.078125 324.085938 215.5625 324.1875 C 216.042969 324.289062 216.53125 324.359375 217.011719 324.410156 C 217.503906 324.457031 218.003906 324.476562 218.496094 324.476562 C 218.984375 324.476562 219.488281 324.457031 219.976562 324.410156 C 220.457031 324.359375 220.949219 324.289062 221.429688 324.1875 C 221.910156 324.085938 222.390625 323.964844 222.863281 323.828125 C 223.320312 323.6875 223.792969 323.515625 224.242188 323.335938 C 224.695312 323.148438 225.136719 322.9375 225.566406 322.707031 C 226.007812 322.476562 226.425781 322.214844 226.835938 321.953125 C 227.238281 321.675781 227.636719 321.386719 228.019531 321.074219 C 228.398438 320.761719 228.769531 320.433594 229.121094 320.082031 C 229.460938 319.730469 229.800781 319.371094 230.113281 318.980469 C 230.421875 318.609375 230.714844 318.207031 230.984375 317.796875 C 231.253906 317.386719 231.503906 316.96875 231.734375 316.535156 C 231.964844 316.105469 232.175781 315.65625 232.367188 315.203125 C 232.554688 314.753906 232.726562 314.28125 232.867188 313.820312 C 233.007812 313.351562 233.125 312.871094 233.226562 312.390625 C 233.316406 311.910156 233.398438 311.417969 233.445312 310.9375 C 233.496094 310.445312 233.515625 309.945312 233.515625 309.457031 C 233.515625 308.964844 233.496094 308.476562 233.445312 307.984375 C 233.394531 307.492188 233.316406 307.003906 233.226562 306.519531 Z M 233.226562 306.519531 " data-original="#000000" class="active-path" data-old_color="#000000" fill="#FB8C00"/>
</g></g> </svg>
